<svg width="40" height="40" viewBox="0 0 40 40" fill="none" xmlns="http://www.w3.org/2000/svg">
<path d="M3.33398 12.333C3.33398 10.4474 3.33398 9.50458 3.91977 8.91879C4.50556 8.33301 5.44837 8.33301 7.33398 8.33301H32.6673C34.5529 8.33301 35.4957 8.33301 36.0815 8.91879C36.6673 9.50458 36.6673 10.4474 36.6673 12.333V15.6663C36.6673 16.1377 36.6673 16.3734 36.5209 16.5199C36.3744 16.6663 36.1387 16.6663 35.6673 16.6663H4.33398C3.86258 16.6663 3.62688 16.6663 3.48043 16.5199C3.33398 16.3734 3.33398 16.1377 3.33398 15.6663V12.333Z" fill="#222222"/>
<path fill-rule="evenodd" clip-rule="evenodd" d="M3.91977 36.0809C3.33398 35.4951 3.33398 34.5523 3.33398 32.6667V21C3.33398 20.5286 3.33398 20.2929 3.48043 20.1464C3.62688 20 3.86258 20 4.33398 20H35.6673C36.1387 20 36.3744 20 36.5209 20.1464C36.6673 20.2929 36.6673 20.5286 36.6673 21V32.6667C36.6673 34.5523 36.6673 35.4951 36.0815 36.0809C35.4957 36.6667 34.5529 36.6667 32.6673 36.6667H7.33398C5.44837 36.6667 4.50556 36.6667 3.91977 36.0809ZM13.334 26.3333C12.2294 26.3333 11.334 27.2288 11.334 28.3333C11.334 29.4379 12.2294 30.3333 13.334 30.3333H26.6673C27.7719 30.3333 28.6673 29.4379 28.6673 28.3333C28.6673 27.2288 27.7719 26.3333 26.6673 26.3333H13.334Z" fill="#222222"/>
<path d="M11.666 5L11.666 10" stroke="#222222" stroke-width="4" stroke-linecap="round"/>
<path d="M28.334 5L28.334 10" stroke="#222222" stroke-width="4" stroke-linecap="round"/>
</svg>
