<svg width="14" height="15" viewBox="0 0 14 15" fill="none" xmlns="http://www.w3.org/2000/svg">
<path fill-rule="evenodd" clip-rule="evenodd" d="M7.19922 3V5.20008L7.19922 5.22753C7.1992 5.67552 7.19919 6.05158 7.2394 6.35065C7.28197 6.66732 7.37612 6.95688 7.60927 7.19003C7.84242 7.42319 8.13198 7.51733 8.44865 7.5599C8.74773 7.60011 9.12379 7.6001 9.57178 7.60008L9.59922 7.60008H11.7992V11.4C11.7992 13.0971 11.7992 13.9456 11.272 14.4728C10.7448 15 9.89627 15 8.19922 15H5.79922C4.10216 15 3.25363 15 2.72643 14.4728C2.19922 13.9456 2.19922 13.0971 2.19922 11.4V6.6C2.19922 4.90294 2.19922 4.05442 2.72643 3.52721C3.25363 3 4.10216 3 5.79922 3H7.19922ZM7.99922 3.00026V5.20008C7.99922 5.6828 8.00007 6.00459 8.03226 6.24406C8.06291 6.47201 8.11522 6.56461 8.17495 6.62435C8.23469 6.68409 8.32729 6.73639 8.55525 6.76704C8.79471 6.79923 9.11651 6.80008 9.59922 6.80008H11.799C11.7974 6.43473 11.7863 6.22717 11.7079 6.03784C11.6165 5.81731 11.4431 5.64389 11.0963 5.29706L9.50216 3.70294C9.15533 3.35611 8.98191 3.18269 8.76138 3.09134C8.57206 3.01293 8.36452 3.00183 7.99922 3.00026Z" fill="#848484"/>
</svg>
